<svg width="225" height="40" viewBox="0 0 225 40" fill="none" xmlns="http://www.w3.org/2000/svg">
<path d="M34.1422 5.85781C30.3647 2.08031 25.3422 0 20 0C14.6578 0 9.63531 2.08031 5.85781 5.85781C2.08031 9.63531 0 14.6578 0 20C0 25.3422 2.08039 30.3646 5.85781 34.1422C9.63523 37.9198 14.6578 40 20 40C25.3422 40 30.3647 37.9197 34.1422 34.1422C37.9197 30.3647 40 25.3422 40 20C40 14.6578 37.9196 9.63539 34.1422 5.85781Z" fill="#33CC95"/>
<g clip-path="url(#clip0_97412_182)">
<path d="M20.5714 8V33.1429" stroke="white" stroke-width="2" stroke-linecap="round" stroke-linejoin="round"/>
<path d="M26.2857 12.5714H17.7143C16.6534 12.5714 15.636 12.9929 14.8859 13.743C14.1357 14.4931 13.7143 15.5106 13.7143 16.5714C13.7143 17.6323 14.1357 18.6497 14.8859 19.3999C15.636 20.15 16.6534 20.5714 17.7143 20.5714H23.4286C24.4894 20.5714 25.5069 20.9929 26.257 21.743C27.0072 22.4931 27.4286 23.5106 27.4286 24.5714C27.4286 25.6323 27.0072 26.6497 26.257 27.3999C25.5069 28.15 24.4894 28.5714 23.4286 28.5714H13.7143" stroke="white" stroke-width="2" stroke-linecap="round" stroke-linejoin="round"/>
</g>
<path d="M61.016 16.768C61.448 16.064 62.008 15.512 62.696 15.112C63.4 14.712 64.2 14.512 65.096 14.512V18.04H64.208C63.152 18.04 62.352 18.288 61.808 18.784C61.28 19.28 61.016 20.144 61.016 21.376V28H57.656V14.704H61.016V16.768ZM73.2631 28.216C71.9831 28.216 70.8311 27.936 69.8071 27.376C68.7831 26.8 67.9751 25.992 67.3831 24.952C66.8071 23.912 66.5191 22.712 66.5191 21.352C66.5191 19.992 66.8151 18.792 67.4071 17.752C68.0151 16.712 68.8391 15.912 69.8791 15.352C70.9191 14.776 72.0791 14.488 73.3591 14.488C74.6391 14.488 75.7991 14.776 76.8391 15.352C77.8791 15.912 78.6951 16.712 79.2871 17.752C79.8951 18.792 80.1991 19.992 80.1991 21.352C80.1991 22.712 79.8871 23.912 79.2631 24.952C78.6551 25.992 77.8231 26.8 76.7671 27.376C75.7271 27.936 74.5591 28.216 73.2631 28.216ZM73.2631 25.288C73.8711 25.288 74.4391 25.144 74.9671 24.856C75.5111 24.552 75.9431 24.104 76.2631 23.512C76.5831 22.92 76.7431 22.2 76.7431 21.352C76.7431 20.088 76.4071 19.12 75.7351 18.448C75.0791 17.76 74.2711 17.416 73.3111 17.416C72.3511 17.416 71.5431 17.76 70.8871 18.448C70.2471 19.12 69.9271 20.088 69.9271 21.352C69.9271 22.616 70.2391 23.592 70.8631 24.28C71.5031 24.952 72.3031 25.288 73.2631 25.288ZM81.7998 21.352C81.7998 19.976 82.0798 18.776 82.6398 17.752C83.1998 16.712 83.9758 15.912 84.9678 15.352C85.9598 14.776 87.0958 14.488 88.3758 14.488C90.0238 14.488 91.3838 14.904 92.4558 15.736C93.5438 16.552 94.2718 17.704 94.6398 19.192H91.0158C90.8238 18.616 90.4958 18.168 90.0318 17.848C89.5838 17.512 89.0238 17.344 88.3518 17.344C87.3918 17.344 86.6318 17.696 86.0718 18.4C85.5118 19.088 85.2318 20.072 85.2318 21.352C85.2318 22.616 85.5118 23.6 86.0718 24.304C86.6318 24.992 87.3918 25.336 88.3518 25.336C89.7118 25.336 90.5998 24.728 91.0158 23.512H94.6398C94.2718 24.952 93.5438 26.096 92.4558 26.944C91.3678 27.792 90.0078 28.216 88.3758 28.216C87.0958 28.216 85.9598 27.936 84.9678 27.376C83.9758 26.8 83.1998 26 82.6398 24.976C82.0798 23.936 81.7998 22.728 81.7998 21.352ZM104.973 28L100.461 22.336V28H97.1013V10.24H100.461V20.344L104.925 14.704H109.293L103.437 21.376L109.341 28H104.973ZM123.477 21.064C123.477 21.544 123.445 21.976 123.381 22.36H113.661C113.741 23.32 114.077 24.072 114.669 24.616C115.261 25.16 115.989 25.432 116.853 25.432C118.101 25.432 118.989 24.896 119.517 23.824H123.141C122.757 25.104 122.021 26.16 120.933 26.992C119.845 27.808 118.509 28.216 116.925 28.216C115.645 28.216 114.493 27.936 113.469 27.376C112.461 26.8 111.669 25.992 111.093 24.952C110.533 23.912 110.253 22.712 110.253 21.352C110.253 19.976 110.533 18.768 111.093 17.728C111.653 16.688 112.437 15.888 113.445 15.328C114.453 14.768 115.613 14.488 116.925 14.488C118.189 14.488 119.317 14.76 120.309 15.304C121.317 15.848 122.093 16.624 122.637 17.632C123.197 18.624 123.477 19.768 123.477 21.064ZM119.997 20.104C119.981 19.24 119.669 18.552 119.061 18.04C118.453 17.512 117.709 17.248 116.829 17.248C115.997 17.248 115.293 17.504 114.717 18.016C114.157 18.512 113.813 19.208 113.685 20.104H119.997ZM129.841 17.464V23.896C129.841 24.344 129.945 24.672 130.153 24.88C130.377 25.072 130.745 25.168 131.257 25.168H132.817V28H130.705C127.873 28 126.457 26.624 126.457 23.872V17.464H124.873V14.704H126.457V11.416H129.841V14.704H132.817V17.464H129.841ZM157.465 14.512C159.097 14.512 160.409 15.016 161.401 16.024C162.409 17.016 162.913 18.408 162.913 20.2V28H159.553V20.656C159.553 19.616 159.289 18.824 158.761 18.28C158.233 17.72 157.513 17.44 156.601 17.44C155.689 17.44 154.961 17.72 154.417 18.28C153.889 18.824 153.625 19.616 153.625 20.656V28H150.265V20.656C150.265 19.616 150.001 18.824 149.473 18.28C148.945 17.72 148.225 17.44 147.313 17.44C146.385 17.44 145.649 17.72 145.105 18.28C144.577 18.824 144.313 19.616 144.313 20.656V28H140.953V14.704H144.313V16.312C144.745 15.752 145.297 15.312 145.969 14.992C146.657 14.672 147.409 14.512 148.225 14.512C149.265 14.512 150.193 14.736 151.009 15.184C151.825 15.616 152.457 16.24 152.905 17.056C153.337 16.288 153.961 15.672 154.777 15.208C155.609 14.744 156.505 14.512 157.465 14.512ZM172.005 28.216C170.725 28.216 169.573 27.936 168.549 27.376C167.525 26.8 166.717 25.992 166.125 24.952C165.549 23.912 165.261 22.712 165.261 21.352C165.261 19.992 165.557 18.792 166.149 17.752C166.757 16.712 167.581 15.912 168.621 15.352C169.661 14.776 170.821 14.488 172.101 14.488C173.381 14.488 174.541 14.776 175.581 15.352C176.621 15.912 177.437 16.712 178.029 17.752C178.637 18.792 178.941 19.992 178.941 21.352C178.941 22.712 178.629 23.912 178.005 24.952C177.397 25.992 176.565 26.8 175.509 27.376C174.469 27.936 173.301 28.216 172.005 28.216ZM172.005 25.288C172.613 25.288 173.181 25.144 173.709 24.856C174.253 24.552 174.685 24.104 175.005 23.512C175.325 22.92 175.485 22.2 175.485 21.352C175.485 20.088 175.149 19.12 174.477 18.448C173.821 17.76 173.013 17.416 172.053 17.416C171.093 17.416 170.285 17.76 169.629 18.448C168.989 19.12 168.669 20.088 168.669 21.352C168.669 22.616 168.981 23.592 169.605 24.28C170.245 24.952 171.045 25.288 172.005 25.288ZM188.774 14.512C190.358 14.512 191.638 15.016 192.614 16.024C193.59 17.016 194.078 18.408 194.078 20.2V28H190.718V20.656C190.718 19.6 190.454 18.792 189.926 18.232C189.398 17.656 188.678 17.368 187.766 17.368C186.838 17.368 186.102 17.656 185.558 18.232C185.03 18.792 184.766 19.6 184.766 20.656V28H181.406V14.704H184.766V16.36C185.214 15.784 185.782 15.336 186.47 15.016C187.174 14.68 187.942 14.512 188.774 14.512ZM209.633 21.064C209.633 21.544 209.601 21.976 209.537 22.36H199.817C199.897 23.32 200.233 24.072 200.825 24.616C201.417 25.16 202.145 25.432 203.009 25.432C204.257 25.432 205.145 24.896 205.673 23.824H209.297C208.913 25.104 208.177 26.16 207.089 26.992C206.001 27.808 204.665 28.216 203.081 28.216C201.801 28.216 200.649 27.936 199.625 27.376C198.617 26.8 197.825 25.992 197.249 24.952C196.689 23.912 196.409 22.712 196.409 21.352C196.409 19.976 196.689 18.768 197.249 17.728C197.809 16.688 198.593 15.888 199.601 15.328C200.609 14.768 201.769 14.488 203.081 14.488C204.345 14.488 205.473 14.76 206.465 15.304C207.473 15.848 208.249 16.624 208.793 17.632C209.353 18.624 209.633 19.768 209.633 21.064ZM206.153 20.104C206.137 19.24 205.825 18.552 205.217 18.04C204.609 17.512 203.865 17.248 202.985 17.248C202.153 17.248 201.449 17.504 200.873 18.016C200.313 18.512 199.969 19.208 199.841 20.104H206.153ZM224.806 14.704L216.574 34.288H212.998L215.878 27.664L210.55 14.704H214.318L217.75 23.992L221.23 14.704H224.806Z" fill="white"/>
<defs>
<clipPath id="clip0_97412_182">
<rect width="27.4286" height="27.4286" fill="white" transform="translate(6.85715 6.85715)"/>
</clipPath>
</defs>
</svg>
